<?xml version="1.0" encoding="utf-8"?>
<!-- Generator: Adobe Illustrator 20.0.0, SVG Export Plug-In . SVG Version: 6.00 Build 0)  -->
<svg version="1.1" xmlns="http://www.w3.org/2000/svg" xmlns:xlink="http://www.w3.org/1999/xlink" x="0px" y="0px"
	 viewBox="0 0 7.9 4.6" style="enable-background:new 0 0 7.9 4.6;" xml:space="preserve">
	<g>
		<path d="M3.9,3.2C4,3.2,4,3.1,3.9,3.2c1.1-1.1,2-2.1,3-3c0,0,0,0,0.1-0.1C7.1,0,7.3,0,7.4,0.1c0.1,0.1,0.3,0.3,0.4,0.4
			c0.1,0.1,0.1,0.2,0,0.4c0,0-0.1,0.1-0.1,0.1C6.5,2.1,5.3,3.3,4.2,4.4c0,0-0.1,0.1-0.1,0.1C4,4.6,3.9,4.6,3.8,4.5c0,0,0,0-0.1-0.1
			C2.5,3.3,1.3,2.1,0.1,0.9C0,0.7,0,0.6,0.1,0.4c0.1-0.1,0.2-0.2,0.3-0.3C0.6,0,0.7,0,0.9,0.1C1.8,1,2.7,1.9,3.6,2.8
			C3.7,2.9,3.8,3.1,3.9,3.2z"/>
	</g>
</svg>
