<?xml version="1.0" encoding="utf-8"?>
<!-- Generator: Adobe Illustrator 20.0.0, SVG Export Plug-In . SVG Version: 6.00 Build 0)  -->
<svg version="1.1" id="Layer_1" xmlns="http://www.w3.org/2000/svg" xmlns:xlink="http://www.w3.org/1999/xlink" x="0px" y="0px"
	 viewBox="0 0 306.7 41.1" style="enable-background:new 0 0 306.7 41.1;" xml:space="preserve">
<style type="text/css">
	.st0{fill:#DA291C;}
</style>
<g id="Layer_1_1_">
	<g>
		<path class="st0" d="M98.3,6.8H89v0.1c0.3,0.5,0.5,1.2,0.5,1.9c0,1.1-0.7,3.1-0.9,4l-5.9,17c-0.8,2.2-0.9,2.8-2.3,4.9v0.1h7.7
			v-0.1c-0.4-0.7-0.6-1.3-0.6-2c0-1.1,0.5-2.6,0.8-3.4l0.4-1.2h8.4c0,0,0.5,1.5,0.9,2.4c0.3,0.8,0.4,1.6,0.4,2.1
			c0,0.6-0.1,1.1-0.4,2.1v0.1h11.2v-0.1c-1.2-1.5-1.8-3.2-2.8-6L98.3,6.8z M90.2,23.5l2.6-7.8l0,0l2.7,7.8H90.2z M75.6,28.6
			c0,2.5,0.2,4.8,1,6.1v0.1h-11v-0.1c1.1-1.9,0.9-3.8,0.9-6v-4.6V23L65,20.1l-5.3-9.9c-0.7-1.4-1.3-2.3-2.4-3.3V6.8h9.6v0.1
			l5.7,11.6c0,0,1.3-2.6,1.6-3.2c0.6-1.2,1.3-2.6,1.6-3.2c0.5-0.9,1-2.2,1-3.2S76.5,7.4,76.2,7V6.8h7.6v0.1l-7.7,15.2l-0.6,1.1
			L75.6,28.6L75.6,28.6z M130.9,34.8h-19.7v-0.1c0.8-1.8,0.9-3.3,0.9-6V12.9c0-3.3-0.3-4.6-0.9-5.9V6.9h10.7V7c-0.7,1.9-0.8,3-0.8,6
			v16.1c1.2,0.2,2.6,0.4,4.1,0.4c3.2,0,4.9-0.3,6.1-0.8h0.3L130.9,34.8z M44.3,6.1c-8.7,0-14.7,5.4-14.7,13
			c0,11.1,11.8,12.7,15.9,9.1l-0.7-1.4c-3.6,0.7-6.8-2-6.8-8.1c0-4.9,2.6-8,6.2-8c4.2,0,6.8,4.2,6.8,10.3c0,6.9-4,12.1-11.4,12.1
			c-8.5,0-14.9-6.7-18.9-13.4c4.4-1.7,7-5,7-9.5c0-5.8-4.4-9.9-12.3-9.9h-15v0.1c0.6,1.3,0.9,3.7,0.9,7v21.3c0,2.7-0.1,4.2-0.9,6
			v0.1h11.1v-0.1c-0.7-1.7-0.9-4-0.9-6c0-3.3,0-5.9,0-5.9c0.1,0,1.2,0,1.4,0c7.7,11.3,16.5,16,25.9,16c13.6,0,21.6-8.6,21.6-18.1
			C59.5,12.6,53.4,6.1,44.3,6.1z M10.7,18.3V5.6h3.1c3.6,0,5.1,2.1,5.1,5.5c0,4.1-2.4,7.3-6.3,7.3C12,18.3,10.9,18.3,10.7,18.3z
			 M197.2,6.9c-0.6,1.3-0.9,2.7-0.9,5.9v17.4c0.1,1.8,0.2,3,0.9,4.4v0.1h-0.9h-1.8h-3.8c-1.4-0.6-2.9-2.3-4.9-4.4
			c-1.6-1.7-9.1-10.4-9.1-10.4h-0.1c0,0,0,8.2,0,8.3c-2.2,0.2-4.8,0.8-6.8,1.3v-1.8v-15c0-3.3-0.3-4.6-0.9-5.9V6.7h5.6h2.3
			l12.7,15.4l0,0v-9.2c0-3.3-0.3-4.6-0.9-5.9V6.9h5.9H197.2L197.2,6.9z M184.1,34.8c-11.1,0.1-13.7,6.1-27.8,6.1
			c-6.8,0-12.8-1.8-12.8-1.8V39c0.8-1.8,0.9-3.2,0.9-5.9V7.4c0-3.3-0.3-5.7-0.9-7V0.3h22.7l0.7,6.3h0c-1.7-0.7-3.8-0.9-6.8-0.9h-6
			v10.9h2.9c4.5,0,7.1-0.3,7.8-0.5h0.2v6.6h-0.1c-0.9-0.3-4-0.6-7.7-0.6h-3V33c0,0,3.5,0.8,6.7,0.8c8.4,0,12-3,20.3-3
			c0.3,0,0.5,0,0.7,0c1.6,1.9,3,3.4,3.6,4C184.9,34.8,184.9,34.8,184.1,34.8z M232.4,12.9v15.9c0,2.7,0.1,4.2,0.9,6v0.1h-10.8v-0.1
			c0.8-1.8,0.9-3.3,0.9-6V12.9c0-3.3-0.3-4.6-0.9-5.9V6.9h10.8V7C232.7,8.3,232.4,9.6,232.4,12.9z M210.7,19L210.7,19h0.8
			c4,0,5.3-0.3,5.9-0.4h0.2v5.8h-0.2c-0.8-0.3-2.5-0.6-5.8-0.6h-0.9v3.4v1.4c0,2.8,0.1,4.7,1,6.1v0.1h-10.9v-0.1
			c0.8-1.8,0.9-3.3,0.9-6V12.9c0-3.3-0.3-4.6-0.9-5.9V6.9h18.6l0.7,5.7H220c-1.3-0.6-3-0.9-5.7-0.9h-3.6v4.6V19z M256.9,29l-0.7,5.8
			h-12.9l0,0H237v-0.1c0.8-1.8,0.9-3.3,0.9-6V12.9c0-3.3-0.3-4.6-0.9-5.9V6.9h18.6l0.7,5.7h-0.1c-1.3-0.6-3-0.9-5.7-0.9h-3.6v6.4
			l0,0l0,0h0.7c4,0,5.3-0.3,5.9-0.4h0.2v5.8h-0.2c-0.8-0.3-2.5-0.6-5.8-0.6h-0.9v6.6c1.3,0.2,2.2,0.3,3.7,0.3c3.4,0,4.6-0.2,6-0.8
			C256.5,29,256.9,29,256.9,29z M306.4,21.7c0,9.6-7,17.1-18.8,17.1c-9.1,0-12-4-23.3-4l0,0h-4.7v-0.1c0.8-1.8,0.9-3.3,0.9-6V12.8
			c0-3.3-0.3-4.6-0.9-5.9V6.8h10.8v0.1c-0.6,1.3-0.9,3.4-0.9,6v17c6.7,0,9.7,2,15.6,2c8.2,0,12.2-4.5,12.2-10.9
			c0-5.5-2.8-9.6-7.7-9.6c-0.9,0-2.2,0-3.2,0v17.3c-3,0.1-6.5-0.3-9-1.2V12.8c0-3.3-0.3-4.6-0.9-5.9V6.8h12.7
			C299.7,6.8,306.4,13.3,306.4,21.7z"/>
	</g>
</g>
</svg>
